<?xml version="1.0" standalone="no"?>
<!DOCTYPE svg PUBLIC "-//W3C//DTD SVG 20010904//EN"
 "http://www.w3.org/TR/2001/REC-SVG-20010904/DTD/svg10.dtd">
<svg version="1.0" xmlns="http://www.w3.org/2000/svg"
 width="320.000000pt" height="200.000000pt" viewBox="0 0 320.000000 200.000000"
 preserveAspectRatio="xMidYMid meet">

<g transform="translate(0.000000,200.000000) scale(0.100000,-0.100000)"
fill="#9b0606ed" stroke="none">
<path d="M1438 1873 c-101 -58 -187 -108 -191 -113 -8 -7 18 -70 29 -70 2 0
79 43 170 95 91 52 170 95 176 95 5 0 84 -43 176 -96 156 -91 167 -95 180 -78
35 48 39 44 -163 160 l-194 112 -183 -105z"/>
<path d="M1499 1698 c-101 -63 -115 -74 -106 -89 10 -16 16 -15 74 17 35 20
63 31 63 24 0 -17 29 -291 35 -325 4 -25 0 -33 -23 -45 -15 -9 -52 -30 -83
-48 l-57 -32 -138 101 c-77 56 -143 105 -148 110 -5 4 17 22 48 39 53 30 68
51 46 65 -6 4 -65 -24 -131 -61 l-122 -67 7 -60 c3 -33 6 -95 6 -138 0 -72 2
-79 20 -79 18 0 20 7 20 70 0 39 3 70 8 70 4 0 80 -32 170 -72 l163 -71 -3
-96 -3 -96 -160 -72 c-88 -39 -163 -72 -167 -72 -5 -1 -8 31 -8 69 0 63 -2 70
-20 70 -18 0 -20 -7 -20 -79 0 -43 -3 -105 -6 -138 l-7 -60 124 -66 c112 -60
125 -65 137 -50 10 14 8 19 -15 33 -16 9 -43 26 -62 37 l-34 21 99 73 c54 40
122 89 150 110 l50 37 80 -47 79 -47 -3 -40 c-5 -74 -34 -319 -37 -323 -2 -2
-29 11 -59 29 -54 30 -76 32 -76 7 0 -7 52 -45 116 -84 l116 -71 114 71 c63
40 114 77 114 84 0 25 -22 23 -76 -7 -30 -18 -57 -31 -58 -29 -6 7 -44 353
-40 360 6 10 152 92 161 90 12 -2 292 -205 292 -212 1 -3 -22 -18 -50 -33 -28
-16 -53 -35 -56 -43 -14 -36 20 -28 136 35 l124 67 -7 74 c-3 41 -6 103 -6
138 0 56 -2 63 -20 63 -17 0 -19 -8 -22 -69 l-3 -70 -165 73 -165 72 -3 95 -3
95 163 72 c90 40 167 72 171 72 4 0 7 -31 7 -70 0 -61 2 -70 18 -70 17 0 19
13 25 137 3 75 4 140 2 144 -10 15 -236 129 -245 124 -21 -13 -8 -32 46 -64
31 -18 52 -37 47 -41 -4 -4 -71 -53 -147 -109 l-139 -101 -56 32 c-31 17 -67
39 -81 49 l-26 17 18 159 c9 87 17 169 18 181 0 24 0 24 64 -12 56 -31 65 -34
70 -19 4 9 3 20 -2 25 -12 12 -215 138 -222 138 -3 0 -57 -32 -121 -72z"/>
<path d="M975 1606 l-190 -111 -3 -223 -2 -222 45 0 45 0 0 203 0 202 166 94
c90 52 167 97 169 102 5 8 -27 69 -35 68 -3 0 -90 -51 -195 -113z"/>
<path d="M2051 1687 c-11 -17 -18 -34 -16 -38 3 -3 81 -50 175 -103 l170 -97
0 -200 0 -199 40 0 40 0 0 219 c0 163 -3 221 -12 229 -7 5 -95 57 -195 115
l-182 106 -20 -32z"/>
<path d="M787 974 c-4 -4 -7 -105 -7 -224 l0 -216 196 -113 c108 -62 197 -111
198 -109 38 58 39 61 22 74 -9 6 -86 52 -171 100 l-155 89 -2 200 -3 200 -35
3 c-20 2 -39 0 -43 -4z"/>
<path d="M2378 780 l-3 -202 -173 -100 -173 -100 19 -32 c11 -17 25 -30 32
-28 8 2 96 51 197 110 l183 106 -2 221 -3 220 -37 3 -38 3 -2 -201z"/>
<path d="M1254 309 c-13 -26 -14 -34 -2 -44 7 -6 93 -58 191 -114 l178 -102
194 112 c206 118 200 113 163 162 -13 17 -25 11 -185 -82 l-172 -100 -171 100
c-94 54 -173 99 -175 99 -3 0 -12 -14 -21 -31z"/>
</g>
</svg>
